<svg width="196" height="40" viewBox="0 0 196 40" fill="none" xmlns="http://www.w3.org/2000/svg">
<path d="M35.213 11.501L35.206 6.288L25.586 0V4.022L31.931 8.2L31.936 11.402L28.988 13.398L26.977 11.931V9.446L23.7 7.204V11.727L18.505 14.915L18.495 23.335L14.822 25.403L12.937 23.926V21.488L15.169 19.959V19.939V16.166L11.152 18.854L8.081 16.856L5.276 18.693L9.659 21.694V23.536L6.5 25.674L3.277 23.492V16.23L8.062 12.991L8.066 9.875L14.203 13.827L19.361 10.394L16.216 8.559L14.159 9.947L9.677 6.983L14.731 4.036L19.11 6.603V2.775L14.736 0.211L4.794 6.008L4.787 11.223L0 14.465V25.257L4.787 28.499L4.794 33.714L14.414 40V35.981L8.069 31.803L8.064 28.601L11.012 26.605L13.023 28.072V30.557L16.3 32.798V28.275L21.569 25.088L21.628 16.667L25.178 14.599L27.063 16.076V18.514L24.831 20.043V20.063V23.837L28.848 21.148L31.919 23.146L34.724 21.309L30.34 18.306V16.466L33.5 14.329L36.723 16.511V23.772L31.939 27.012L31.934 30.127L25.797 26.173L20.639 29.584L23.784 31.416L25.841 30.055L30.323 33.019L25.269 35.966L20.89 33.399V37.225L25.264 39.789L35.206 33.995L35.213 28.779L40 25.537V14.743L35.213 11.501Z" fill="#AC6AFF"/>
<path d="M56.96 28V12.544H65.792C67.36 12.544 68.568 12.92 69.416 13.672C70.264 14.424 70.688 15.488 70.688 16.864C70.688 17.648 70.544 18.312 70.256 18.856C69.984 19.4 69.616 19.832 69.152 20.152C69.792 20.424 70.296 20.8 70.664 21.28C71.032 21.744 71.216 22.44 71.216 23.368C71.216 24.824 70.752 25.96 69.824 26.776C68.896 27.592 67.6 28 65.936 28H56.96ZM61.856 18.592H64.4C65.328 18.592 65.792 18.176 65.792 17.344C65.792 16.944 65.672 16.64 65.432 16.432C65.208 16.208 64.84 16.096 64.328 16.096H61.856V18.592ZM61.856 24.472H64.496C65.472 24.472 65.96 24.024 65.96 23.128C65.96 22.296 65.456 21.88 64.448 21.88H61.856V24.472ZM72.6631 28V16.624H77.6791L77.7991 17.416C78.2311 17.16 78.7991 16.928 79.5031 16.72C80.2071 16.512 80.9271 16.4 81.6631 16.384V20.2C81.2631 20.216 80.8151 20.256 80.3191 20.32C79.8391 20.384 79.3751 20.464 78.9271 20.56C78.4951 20.64 78.1271 20.744 77.8231 20.872V28H72.6631ZM85.6599 28.24C84.9399 28.24 84.2759 28.112 83.6679 27.856C83.0599 27.6 82.5719 27.2 82.2039 26.656C81.8359 26.096 81.6519 25.384 81.6519 24.52C81.6519 23.288 82.0519 22.344 82.8519 21.688C83.6519 21.016 84.8759 20.68 86.5239 20.68H89.2839V20.512C89.2839 20.192 89.0999 19.952 88.7319 19.792C88.3799 19.616 87.8039 19.528 87.0039 19.528C86.3959 19.528 85.7399 19.584 85.0359 19.696C84.3479 19.792 83.6919 19.936 83.0679 20.128V17.224C83.6759 16.968 84.4359 16.768 85.3479 16.624C86.2599 16.464 87.1559 16.384 88.0359 16.384C89.8919 16.384 91.3799 16.768 92.4999 17.536C93.6199 18.288 94.1799 19.48 94.1799 21.112V28H89.6679L89.4519 27.136C89.0519 27.472 88.5399 27.744 87.9159 27.952C87.3079 28.144 86.5559 28.24 85.6599 28.24ZM87.5319 25.336C87.9319 25.336 88.2679 25.272 88.5399 25.144C88.8279 25 89.0759 24.824 89.2839 24.616V23.392H87.6519C86.8039 23.392 86.3799 23.72 86.3799 24.376C86.3799 25.016 86.7639 25.336 87.5319 25.336ZM96.8703 15.4V11.776H102.414V15.4H96.8703ZM97.2543 28V20.368H95.6463L96.0783 16.624H102.414V28H97.2543ZM104.327 28V16.624H109.151L109.271 17.392C109.687 17.12 110.255 16.888 110.975 16.696C111.695 16.488 112.463 16.384 113.279 16.384C114.671 16.384 115.687 16.744 116.327 17.464C116.967 18.168 117.287 19.248 117.287 20.704V28H112.127V21.304C112.127 20.904 112.039 20.624 111.863 20.464C111.687 20.288 111.391 20.2 110.975 20.2C110.719 20.2 110.447 20.264 110.159 20.392C109.887 20.52 109.663 20.672 109.487 20.848V28H104.327Z" fill="white"/>
<path d="M119.093 28V12.544H124.037L127.541 19.672L130.997 12.544H135.941V28H130.781V21.424L128.861 25.36H126.173L124.253 21.424V28H119.093ZM141.394 28.24C140.674 28.24 140.01 28.112 139.402 27.856C138.794 27.6 138.306 27.2 137.938 26.656C137.57 26.096 137.386 25.384 137.386 24.52C137.386 23.288 137.786 22.344 138.586 21.688C139.386 21.016 140.61 20.68 142.258 20.68H145.018V20.512C145.018 20.192 144.834 19.952 144.466 19.792C144.114 19.616 143.538 19.528 142.738 19.528C142.13 19.528 141.474 19.584 140.77 19.696C140.082 19.792 139.426 19.936 138.802 20.128V17.224C139.41 16.968 140.17 16.768 141.082 16.624C141.994 16.464 142.89 16.384 143.77 16.384C145.626 16.384 147.114 16.768 148.234 17.536C149.354 18.288 149.914 19.48 149.914 21.112V28H145.402L145.186 27.136C144.786 27.472 144.274 27.744 143.65 27.952C143.042 28.144 142.29 28.24 141.394 28.24ZM143.266 25.336C143.666 25.336 144.002 25.272 144.274 25.144C144.562 25 144.81 24.824 145.018 24.616V23.392H143.386C142.538 23.392 142.114 23.72 142.114 24.376C142.114 25.016 142.498 25.336 143.266 25.336ZM156.421 28.24C155.397 28.24 154.429 28.16 153.517 28C152.605 27.856 151.901 27.68 151.405 27.472V24.016C151.789 24.208 152.221 24.376 152.701 24.52C153.197 24.648 153.693 24.744 154.189 24.808C154.685 24.872 155.109 24.904 155.461 24.904C155.925 24.904 156.293 24.896 156.565 24.88C156.837 24.848 156.973 24.736 156.973 24.544C156.973 24.384 156.845 24.256 156.589 24.16C156.349 24.064 156.029 23.968 155.629 23.872C155.229 23.76 154.789 23.624 154.309 23.464C153.269 23.08 152.501 22.648 152.005 22.168C151.525 21.672 151.285 20.96 151.285 20.032C151.285 18.848 151.757 17.944 152.701 17.32C153.661 16.696 155.141 16.384 157.141 16.384C157.637 16.384 158.165 16.416 158.725 16.48C159.285 16.528 159.813 16.592 160.309 16.672C160.821 16.752 161.229 16.848 161.533 16.96V20.368C161.037 20.144 160.501 19.984 159.925 19.888C159.349 19.776 158.829 19.72 158.365 19.72C157.949 19.72 157.541 19.736 157.141 19.768C156.741 19.8 156.541 19.912 156.541 20.104C156.541 20.312 156.773 20.464 157.237 20.56C157.717 20.656 158.301 20.816 158.989 21.04C159.837 21.28 160.493 21.552 160.957 21.856C161.437 22.16 161.773 22.528 161.965 22.96C162.157 23.392 162.253 23.92 162.253 24.544C162.253 25.696 161.757 26.6 160.765 27.256C159.789 27.912 158.341 28.24 156.421 28.24ZM168.455 28.24C166.823 28.24 165.647 27.84 164.927 27.04C164.207 26.224 163.847 25.128 163.847 23.752V20.392H162.431V16.624H163.847V14.344L169.007 13.216V16.624H171.479L171.335 20.392H169.007V23.44C169.007 24.208 169.439 24.592 170.303 24.592C170.783 24.592 171.263 24.512 171.743 24.352V27.664C171.279 27.856 170.783 28 170.255 28.096C169.727 28.192 169.127 28.24 168.455 28.24ZM179.173 28.24C177.845 28.24 176.653 28.024 175.597 27.592C174.557 27.144 173.741 26.48 173.149 25.6C172.557 24.72 172.261 23.64 172.261 22.36C172.261 20.552 172.781 19.104 173.821 18.016C174.877 16.928 176.453 16.384 178.549 16.384C180.453 16.384 181.957 16.864 183.061 17.824C184.165 18.768 184.717 20.096 184.717 21.808V23.776H176.989C177.405 24.656 178.573 25.096 180.493 25.096C181.197 25.096 181.877 25.04 182.533 24.928C183.189 24.8 183.717 24.656 184.117 24.496V27.424C182.981 27.968 181.333 28.24 179.173 28.24ZM176.989 21.088H180.301V20.776C180.301 20.44 180.181 20.152 179.941 19.912C179.717 19.672 179.309 19.552 178.717 19.552C178.077 19.552 177.629 19.688 177.373 19.96C177.117 20.232 176.989 20.608 176.989 21.088ZM186.148 28V16.624H191.164L191.284 17.416C191.716 17.16 192.284 16.928 192.988 16.72C193.692 16.512 194.412 16.4 195.148 16.384V20.2C194.748 20.216 194.3 20.256 193.804 20.32C193.324 20.384 192.86 20.464 192.412 20.56C191.98 20.64 191.612 20.744 191.308 20.872V28H186.148Z" fill="#AC6AFF"/>
</svg>
